<svg width="20" height="20" viewBox="0 0 20 20" fill="none" xmlns="http://www.w3.org/2000/svg">
<path d="M6.66675 10.1666H12.5001" stroke="#4749B3" stroke-width="1.5" stroke-miterlimit="10" stroke-linecap="round" stroke-linejoin="round"/>
<path d="M6.66675 13.4999H10.3167" stroke="#4749B3" stroke-width="1.5" stroke-miterlimit="10" stroke-linecap="round" stroke-linejoin="round"/>
<path d="M8.33341 5.00002H11.6667C13.3334 5.00002 13.3334 4.16669 13.3334 3.33335C13.3334 1.66669 12.5001 1.66669 11.6667 1.66669H8.33341C7.50008 1.66669 6.66675 1.66669 6.66675 3.33335C6.66675 5.00002 7.50008 5.00002 8.33341 5.00002Z" stroke="#4749B3" stroke-width="1.5" stroke-miterlimit="10" stroke-linecap="round" stroke-linejoin="round"/>
<path d="M13.3333 3.35004C16.1083 3.50004 17.5 4.52504 17.5 8.33337V13.3334C17.5 16.6667 16.6667 18.3334 12.5 18.3334H7.5C3.33333 18.3334 2.5 16.6667 2.5 13.3334V8.33337C2.5 4.53337 3.89167 3.50004 6.66667 3.35004" stroke="#4749B3" stroke-width="1.5" stroke-miterlimit="10" stroke-linecap="round" stroke-linejoin="round"/>
</svg>
