<svg width="20" height="20" viewBox="0 0 20 20" fill="none" xmlns="http://www.w3.org/2000/svg">
<path d="M6.9292 10.3393L7.7131 9.3664C8.0434 8.956 8.4511 8.5744 8.4844 8.0272C8.4916 7.8895 8.3944 7.2703 8.2009 6.031C8.1244 5.5441 7.669 5.5 7.2757 5.5C6.7627 5.5 6.5062 5.5 6.2515 5.617C5.9293 5.7637 5.599 6.1768 5.5261 6.5233C5.4685 6.7978 5.5117 6.9868 5.5972 7.3648C5.959 8.9695 6.8095 10.5544 8.1271 11.8729C9.4456 13.1905 11.0305 14.041 12.6361 14.4028C13.0141 14.4883 13.2022 14.5315 13.4767 14.4739C13.8232 14.4019 14.2363 14.0707 14.3839 13.7485C14.5 13.4938 14.5 13.2373 14.5 12.7243C14.5 12.3301 14.4559 11.8756 13.969 11.7991C12.7297 11.6047 12.1105 11.5084 11.9728 11.5156C11.4265 11.548 11.044 11.9566 10.6336 12.2869L9.6607 13.0699M10 19C14.9707 19 19 14.9707 19 10C19 5.0293 14.9707 1 10 1C5.0293 1 1 5.0293 1 10C1 11.2411 1.252 12.4237 1.7056 13.4992C1.9567 14.0932 2.0818 14.3902 2.098 14.6152C2.1133 14.8402 2.0467 15.0868 1.9144 15.5809L1 19L4.4191 18.0856C4.9132 17.9533 5.1598 17.8876 5.3848 17.902C5.6098 17.9182 5.9068 18.0433 6.5008 18.2944C7.60839 18.7609 8.79819 19.0008 10 19Z" stroke="#6669FE" stroke-width="1.5" stroke-linecap="round" stroke-linejoin="round"/>
</svg>
