<svg width="20" height="20" viewBox="0 0 20 20" fill="none" xmlns="http://www.w3.org/2000/svg">
<path d="M10.4417 17.0166H5.17508C2.54175 17.0166 1.66675 15.2666 1.66675 13.5083V6.49164C1.66675 3.85831 2.54175 2.98331 5.17508 2.98331H10.4417C13.0751 2.98331 13.9501 3.85831 13.9501 6.49164V13.5083C13.9501 16.1416 13.0667 17.0166 10.4417 17.0166Z" stroke="#E66DFF" stroke-width="1.5" stroke-linecap="round" stroke-linejoin="round"/>
<path d="M16.2666 14.25L13.95 12.625V7.36668L16.2666 5.74168C17.4 4.95002 18.3333 5.43335 18.3333 6.82502V13.175C18.3333 14.5667 17.4 15.05 16.2666 14.25Z" stroke="#E66DFF" stroke-width="1.5" stroke-linecap="round" stroke-linejoin="round"/>
<path d="M9.58325 9.16666C10.2736 9.16666 10.8333 8.60701 10.8333 7.91666C10.8333 7.2263 10.2736 6.66666 9.58325 6.66666C8.8929 6.66666 8.33325 7.2263 8.33325 7.91666C8.33325 8.60701 8.8929 9.16666 9.58325 9.16666Z" stroke="#E66DFF" stroke-width="1.5" stroke-linecap="round" stroke-linejoin="round"/>
</svg>
