<svg width="20" height="20" viewBox="0 0 20 20" fill="none" xmlns="http://www.w3.org/2000/svg">
<path d="M10.4417 17.0166H5.17508C2.54175 17.0166 1.66675 15.2666 1.66675 13.5083V6.49161C1.66675 3.85828 2.54175 2.98328 5.17508 2.98328H10.4417C13.0751 2.98328 13.9501 3.85828 13.9501 6.49161V13.5083C13.9501 16.1416 13.0667 17.0166 10.4417 17.0166Z" stroke="white" stroke-width="1.5" stroke-linecap="round" stroke-linejoin="round"/>
<path d="M16.2666 14.25L13.95 12.625V7.36665L16.2666 5.74165C17.4 4.94999 18.3333 5.43332 18.3333 6.82499V13.175C18.3333 14.5667 17.4 15.05 16.2666 14.25Z" stroke="white" stroke-width="1.5" stroke-linecap="round" stroke-linejoin="round"/>
<path d="M9.58325 9.16669C10.2736 9.16669 10.8333 8.60704 10.8333 7.91669C10.8333 7.22633 10.2736 6.66669 9.58325 6.66669C8.8929 6.66669 8.33325 7.22633 8.33325 7.91669C8.33325 8.60704 8.8929 9.16669 9.58325 9.16669Z" stroke="white" stroke-width="1.5" stroke-linecap="round" stroke-linejoin="round"/>
</svg>
